<svg xmlns="http://www.w3.org/2000/svg" width="18" height="18" viewBox="0 0 18 18">
  <path id="Call" d="M14.562,18a15.5,15.5,0,0,1-3.6-.429A14.171,14.171,0,0,1,.251,6.735,12.514,12.514,0,0,1,0,4.181,13.116,13.116,0,0,1,.366,1.086,1.493,1.493,0,0,1,1.832,0H4.89A2.413,2.413,0,0,1,7.361,2.345V4.181a.509.509,0,0,1-.326.468L4.9,5.518a.39.39,0,0,0-.261.418,9.822,9.822,0,0,0,7.1,7.451.5.5,0,0,0,.132.018.438.438,0,0,0,.406-.246l.828-1.835a.541.541,0,0,1,.494-.308h1.934A2.413,2.413,0,0,1,18,13.36v3.072a1.45,1.45,0,0,1-1.258,1.412A15.537,15.537,0,0,1,14.562,18ZM1.832,1.019a.422.422,0,0,0-.42.3,12.134,12.134,0,0,0-.338,2.867,11.513,11.513,0,0,0,.233,2.362,13.125,13.125,0,0,0,9.916,10.041,14.416,14.416,0,0,0,3.348.4,14.315,14.315,0,0,0,2.013-.143.406.406,0,0,0,.343-.4V13.36a1.365,1.365,0,0,0-1.4-1.326h-1.58l-.689,1.526a1.518,1.518,0,0,1-1.4.864,1.61,1.61,0,0,1-.428-.058A10.867,10.867,0,0,1,3.58,6.12a1.4,1.4,0,0,1,.893-1.538l1.814-.737v-1.5a1.365,1.365,0,0,0-1.4-1.326Z" fill="#757575"/>
</svg>
