<svg xmlns="http://www.w3.org/2000/svg" width="29" height="29" viewBox="0 0 29 29">
  <g id="facebook" transform="translate(-233 -749)">
    <path id="Path_39" d="M14.5,0A14.5,14.5,0,1,1,0,14.5,14.5,14.5,0,0,1,14.5,0Z" transform="translate(233 749)" fill="#3e54ac" opacity="0.79"/>
    <g id="SVGRepo_iconCarrier" transform="translate(243.472 755)">
      <path id="Path_38" d="M13.585,4.675h1.471V2.113A19.059,19.059,0,0,0,12.914,2C10.793,2,9.34,3.334,9.34,5.785V8.042H7v2.864H9.34v7.206h2.868V10.905h2.246l.357-2.864h-2.6V6.069C12.209,5.241,12.431,4.675,13.585,4.675Z" transform="translate(-7 -2)" fill="#fff" stroke="#fff" stroke-width="1" fill-rule="evenodd"/>
    </g>
  </g>
</svg>
