<svg xmlns="http://www.w3.org/2000/svg" width="46" height="46" viewBox="0 0 46 46">
  <g id="filter" transform="translate(-305 -62)">
    <circle id="Chart_Area" cx="23" cy="23" r="23" transform="translate(305 62)" fill="#f1f1f3" opacity="0.5"/>
    <g id="SVGRepo_iconCarrier" transform="translate(315 73)">
      <path id="Path_22" d="M9.907,4h.186a4.13,4.13,0,0,1,1.054.085,2.5,2.5,0,0,1,1.768,1.768A4.131,4.131,0,0,1,13,6.907c0,.031,0,.062,0,.093h8a1,1,0,1,1,0,2H13c0,.031,0,.062,0,.093a4.132,4.132,0,0,1-.085,1.054,2.5,2.5,0,0,1-1.768,1.768A4.131,4.131,0,0,1,10.093,12H9.907a4.131,4.131,0,0,1-1.054-.085,2.5,2.5,0,0,1-1.768-1.768A4.131,4.131,0,0,1,7,9.093Q7,9.047,7,9H5A1,1,0,1,1,5,7H7q0-.047,0-.093a4.13,4.13,0,0,1,.085-1.054A2.5,2.5,0,0,1,8.853,4.085,4.131,4.131,0,0,1,9.907,4ZM9.5,6.005a.771.771,0,0,0-.128.012.5.5,0,0,0-.354.354.834.834,0,0,0-.012.128C9,6.611,9,6.758,9,7V9c0,.242,0,.389.005.5a.768.768,0,0,0,.012.128.5.5,0,0,0,.354.354.77.77,0,0,0,.128.012c.112.005.26.005.5.005s.389,0,.5-.005a.772.772,0,0,0,.128-.012.5.5,0,0,0,.354-.354.771.771,0,0,0,.012-.128C11,9.389,11,9.242,11,9V7c0-.242,0-.389-.005-.5a.771.771,0,0,0-.012-.128M9.5,6.005C9.611,6,9.758,6,10,6ZM10,6c.242,0,.389,0,.5.005Zm.5.005a.833.833,0,0,1,.128.012Zm.128.012h0ZM15.907,12h.186a4.131,4.131,0,0,1,1.054.085,2.5,2.5,0,0,1,1.768,1.768A4.131,4.131,0,0,1,19,14.907c0,.031,0,.062,0,.093h2a1,1,0,0,1,0,2H19c0,.031,0,.062,0,.093a4.132,4.132,0,0,1-.085,1.054,2.5,2.5,0,0,1-1.768,1.768A4.131,4.131,0,0,1,16.093,20h-.186a4.131,4.131,0,0,1-1.054-.085,2.5,2.5,0,0,1-1.768-1.768A4.132,4.132,0,0,1,13,17.093c0-.031,0-.062,0-.093H5a1,1,0,0,1,0-2h8c0-.031,0-.062,0-.093a4.131,4.131,0,0,1,.085-1.054,2.5,2.5,0,0,1,1.768-1.768A4.131,4.131,0,0,1,15.907,12ZM15.5,14.005a.773.773,0,0,0-.128.012.5.5,0,0,0-.354.354.773.773,0,0,0-.012.128c-.005.112-.005.26-.005.5v2c0,.242,0,.389.005.5a.767.767,0,0,0,.012.128.5.5,0,0,0,.354.354.776.776,0,0,0,.128.012c.112.005.26.005.5.005s.389,0,.5-.005a.776.776,0,0,0,.128-.012.5.5,0,0,0,.354-.354.768.768,0,0,0,.012-.128c.005-.112.005-.26.005-.5V15c0-.241,0-.389-.005-.5a.773.773,0,0,0-.012-.128.5.5,0,0,0-.354-.354.773.773,0,0,0-.128-.012C16.389,14,16.242,14,16,14S15.611,14,15.5,14.005Z" fill="#757575" fill-rule="evenodd"/>
    </g>
  </g>
</svg>
