<svg xmlns="http://www.w3.org/2000/svg" width="15" height="18" viewBox="0 0 15 18">
  <path id="Lock" d="M10.988,18H4.011A3.964,3.964,0,0,1,0,14.094V9A3.951,3.951,0,0,1,3.488,5.127V3.906A3.964,3.964,0,0,1,7.5,0a4.079,4.079,0,0,1,2.836,1.14,3.872,3.872,0,0,1,1.176,2.766V5.127A3.952,3.952,0,0,1,15,9v5.094A3.965,3.965,0,0,1,10.988,18ZM4.011,6.113A2.93,2.93,0,0,0,1.047,9v5.094a2.93,2.93,0,0,0,2.965,2.887h6.977a2.93,2.93,0,0,0,2.965-2.887V9a2.93,2.93,0,0,0-2.965-2.887ZM7.5,1.019A2.93,2.93,0,0,0,4.535,3.906V5.094h5.93V3.906a2.859,2.859,0,0,0-.87-2.046A3.011,3.011,0,0,0,7.5,1.019Zm0,12.227a1.7,1.7,0,1,1,1.744-1.7A1.724,1.724,0,0,1,7.5,13.245Z" fill="#757575"/>
</svg>
