<svg xmlns="http://www.w3.org/2000/svg" width="18" height="18" viewBox="0 0 18 18">
  <path id="User_Icon_Copy" data-name="User Icon Copy" d="M15.719,18H2.28a2.3,2.3,0,0,1-1.809-.862,2.075,2.075,0,0,1-.409-1.82A8.948,8.948,0,0,1,2.4,11.2,9.238,9.238,0,0,1,6.461,8.824,4.718,4.718,0,0,1,4.13,4.762,4.823,4.823,0,0,1,9,0a4.822,4.822,0,0,1,4.869,4.762,4.717,4.717,0,0,1-2.33,4.062A9.24,9.24,0,0,1,15.6,11.2a8.944,8.944,0,0,1,2.334,4.12,2.075,2.075,0,0,1-.409,1.82A2.3,2.3,0,0,1,15.719,18ZM9,9.524a8.083,8.083,0,0,0-7.9,6.045,1.045,1.045,0,0,0,.212.925,1.247,1.247,0,0,0,.968.462H15.719a1.25,1.25,0,0,0,.968-.462,1.047,1.047,0,0,0,.212-.925A8.084,8.084,0,0,0,9,9.524ZM9,1.046A3.763,3.763,0,0,0,5.2,4.762a3.8,3.8,0,0,0,7.6,0A3.763,3.763,0,0,0,9,1.046Z" transform="translate(0)" fill="#757575"/>
</svg>
