<svg xmlns="http://www.w3.org/2000/svg" width="36" height="36" viewBox="0 0 36 36">
  <g id="whatsapp" transform="translate(-326 -745)">
    <circle id="Ellipse_4" cx="18" cy="18" r="18" transform="translate(326 745)" fill="#fff"/>
    <g id="SVGRepo_iconCarrier" transform="translate(334 753)">
      <g id="Icons">
        <g id="Color-">
          <path id="Whatsapp-2" d="M710,360a9.993,9.993,0,0,0-8.093,15.861l-1.246,3.715,3.843-1.228A10,10,0,1,0,710,360Zm-2.792,5.08c-.194-.465-.341-.482-.635-.494-.1-.006-.212-.011-.335-.011a1.451,1.451,0,0,0-1.023.358,3.193,3.193,0,0,0-1.022,2.434,5.719,5.719,0,0,0,1.187,3.016,12.519,12.519,0,0,0,4.978,4.4c2.3.952,2.98.864,3.5.753a2.818,2.818,0,0,0,1.963-1.411,2.479,2.479,0,0,0,.17-1.387c-.07-.123-.265-.194-.558-.341s-1.722-.853-1.993-.947a.558.558,0,0,0-.717.218,12.276,12.276,0,0,1-.782,1.035.632.632,0,0,1-.705.111,7.362,7.362,0,0,1-2.345-1.446,8.889,8.889,0,0,1-1.622-2.016c-.17-.294-.018-.464.117-.623.147-.182.288-.312.435-.482a1.765,1.765,0,0,0,.323-.459.6.6,0,0,0-.041-.541C708.034,367.1,707.446,365.661,707.205,365.08Z" transform="translate(-700 -360)" fill="#67c15e" fill-rule="evenodd"/>
        </g>
      </g>
    </g>
  </g>
</svg>
